# xmcd
#
# Track frame offsets:
#	150
#	13873
#	27526
#	42691
#	56218
#	68106
#	83642
#	95285
#	105016
#	122318
#
# Disc length: 1796
#
# Revision: 1
# Processed by: cddbd v1.5.1PL0 Copyright (c) Steve Scherf et al.
# Submitted via: VisiTrax 2.9.5.181 - For more info visit www.synapsa.com
# Normalized: r0:DSETVAR1
#
DISCID=7907020a
DTITLE=Various Artist - Hot Country Hits, Vol. 1
DYEAR=1998
DGENRE=
TTITLE0=Mel McDaniel - Baby's Got Her Blue Jeans On
TTITLE1=Janie Fricke - Your Heart's Not in It
TTITLE2=Roy Clark - Yesterday, When I Was Young
TTITLE3=Mickey Gilley - Room Full of Roses
TTITLE4=Moe Bandy - It's a Cheatin' Situation
TTITLE5=The Gatlin Brothers - Cool Water
TTITLE6=Highway 101 and Paulette Carlson - Walkin, ' Talkin, ' Cryin, ' Barely Beatin, ' Broken Heart
TTITLE7=Johnny Rodriquez - Ridin' My Thumb to Mexico
TTITLE8=Eddy Raven - Joe Knows How to Live
TTITLE9=Exile - Give Me One More Chance
EXTD=Intersound Country 9331 c. 1998
EXTT0=
EXTT1=
EXTT2=
EXTT3=
EXTT4=
EXTT5=
EXTT6=
EXTT7=
EXTT8=
EXTT9=
PLAYORDER=
